<svg xmlns="http://www.w3.org/2000/svg" width="516" height="171" viewBox="0 0 516 171">
    <defs>
        <linearGradient id="a" x1="-205.514%" x2="166.394%" y1="74.783%" y2="-25.978%">
            <stop offset="0%" stop-color="#FFD663"/>
            <stop offset="100%" stop-color="#FF6F6D"/>
        </linearGradient>
        <linearGradient id="b" x1="100%" x2="0%" y1=".055%" y2="99.945%">
            <stop offset="0%" stop-color="#00657E"/>
            <stop offset="100%" stop-color="#5677D8"/>
        </linearGradient>
        <linearGradient id="c" x1="14.064%" x2="86.056%" y1="12.628%" y2="85.13%">
            <stop offset="0%" stop-color="#FDEA67"/>
            <stop offset="100%" stop-color="#F5971A"/>
        </linearGradient>
    </defs>
    <g fill="none" fill-rule="nonzero">
        <path fill="url(#a)" d="M454.642 276.89a211.451 211.451 0 0 1 4.008 41.08c0 116.275-94.31 210.534-210.65 210.534-116.338 0-210.649-94.26-210.649-210.534 0-116.275 94.311-210.534 210.65-210.534 20.378 0 40.08 2.892 58.718 8.287V77.36c0-16.205 13.144-29.342 29.358-29.342h170.281c16.215 0 29.36 13.137 29.36 29.342v170.188c0 16.206-13.145 29.343-29.36 29.343h-51.716zm-255.45 162.119c39.523 0 71.562-32.022 71.562-71.523s-32.04-71.523-71.562-71.523c-39.523 0-71.562 32.022-71.562 71.523 0 39.5 32.04 71.523 71.562 71.523z" transform="rotate(9 627.748 -58.232)"/>
        <path d="M29.102-55.959L521.96 22.102 443.898 514.96-48.96 436.898 29.102-55.96z"/>
        <path fill="url(#b)" d="M299.093.367h170.28c16.215 0 29.36 13.137 29.36 29.343v170.187c0 16.206-13.145 29.343-29.36 29.343h-170.28c-16.215 0-29.359-13.137-29.359-29.343V29.71c0-16.206 13.144-29.343 29.359-29.343z" style="mix-blend-mode:overlay" transform="rotate(9 306.531 152.91)"/>
        <path fill="url(#c)" fill-opacity=".54" d="M211.016 480.854C94.678 480.854.367 386.594.367 270.32c0-116.275 94.31-210.534 210.65-210.534 116.338 0 210.649 94.26 210.649 210.534 0 116.275-94.311 210.534-210.65 210.534zm-48.809-89.495c39.523 0 71.562-32.022 71.562-71.523s-32.039-71.523-71.562-71.523c-39.522 0-71.562 32.022-71.562 71.523 0 39.5 32.04 71.523 71.562 71.523z" style="mix-blend-mode:overlay" transform="rotate(9 306.531 152.91)"/>
    </g>
</svg>
