<?xml version="1.0" encoding="UTF-8"?>
<svg width="129px" height="100px" viewBox="0 0 129 100" version="1.1" xmlns="http://www.w3.org/2000/svg" xmlns:xlink="http://www.w3.org/1999/xlink">
    <!-- Generator: Sketch 54.1 (76490) - https://sketchapp.com -->
    <title>beta</title>
    <desc>Created with Sketch.</desc>
    <g id="Page-1" stroke="none" stroke-width="1" fill="none" fill-rule="evenodd">
        <g id="beta">
            <rect id="Rectangle" fill-opacity="0.01" fill="#FFFFFF" x="0" y="99.9" width="1" height="1"></rect>
            <path d="M36.0168536,30.4 C38.08428,30.4 39.8483072,29.6696702 41.3089885,28.2089888 C42.7696697,26.7483073 43.5,24.98428 43.5,22.916854 C43.5,20.8494279 42.7696697,19.0741647 41.3089885,17.5910112 C39.8483072,16.1303298 38.08428,15.4 36.0168536,15.4 C33.9269557,15.4 32.1516928,16.1303298 30.6910105,17.5910112 C29.2303293,19.0741647 28.5,20.8494279 28.5,22.916854 C28.5,24.98428 29.2303293,26.7483073 30.6910105,28.2089888 C32.1516928,29.6696702 33.9269557,30.4 36.0168536,30.4 Z M36.0169254,10.6953967 C39.3117238,10.6953967 42.1325693,11.8837622 44.4795491,14.2605289 C46.8265279,16.6372956 48,19.5053701 48,22.8648385 C48,26.2014532 46.8265279,29.0581011 44.4795491,31.4348678 C42.1325693,33.8116346 39.3117238,35 36.0169254,35 C32.6995605,35 29.8674307,33.8116346 27.5204519,31.4348678 C25.1734721,29.0581011 24,26.2014532 24,22.8648385 L24,0 L28.4682655,0 L28.4682655,13.4720862 C30.7024086,11.6209506 33.2186038,10.6953967 36.0169254,10.6953967 Z M66.1609787,15.5205479 C64.4709932,15.5205479 62.9523137,16.022826 61.6048932,17.0273973 C60.3031487,18.0319685 59.4010758,19.3219099 58.8986475,20.8972603 L73.3890534,20.8972603 C72.886625,19.3219099 71.9845522,18.0319685 70.6828077,17.0273973 C69.3353871,16.022826 67.8281262,15.5205479 66.1609787,15.5205479 Z M77.7968972,25.2172073 L58.8406204,25.2510578 C59.3370972,26.7856212 60.2284845,28.0493603 61.5148091,29.0423131 C62.8462688,30.0352659 64.3469587,30.5317349 66.0169254,30.5317349 C67.3483851,30.5317349 68.6798239,30.2270835 70.0112836,29.6177715 C71.4104439,28.9858925 72.4372325,28.1847721 73.091678,27.2143865 L76.781382,29.719323 C75.7207277,31.2990206 74.1749047,32.5740432 72.1438644,33.5444288 C70.1353917,34.5148145 68.0930988,35 66.0169254,35 C62.6995605,35 59.8674307,33.8265279 57.5204509,31.4795487 C55.1734721,29.1325694 54,26.3117231 54,23.0169252 C54,19.6995603 55.1734721,16.8674306 57.5204509,14.5204513 C59.8674307,12.1734721 62.6995605,11 66.0169254,11 C69.3117228,11 72.1325693,12.1734721 74.4795491,14.5204513 C76.8265279,16.8674306 78,19.6995603 78,23.0169252 C78,23.7616398 77.9322994,24.4950598 77.7968972,25.2172073 Z M91.4470583,30.1419559 L99,30.1419559 L99,35 L91.4470583,35 C89.3999902,35 87.6470668,34.2516724 86.1882356,32.7549948 C84.7529343,31.2337814 84.0352944,29.4058992 84.0352944,27.2712933 L84,0 L88.6588235,0 L88.6588235,8.90641432 L96.9176467,8.90641432 L96.9176467,13.7644584 L88.6588235,13.7644584 L88.6588235,27.2712933 C88.6588235,28.0564358 88.9294094,28.7311574 89.4705884,29.2954785 C90.0117674,29.8597995 90.6705848,30.1419559 91.4470583,30.1419559 Z M116.970846,30.4808219 C119.038273,30.4808219 120.813536,29.7504921 122.296689,28.2898107 C123.757371,26.8291292 124.487701,25.0651019 124.487701,22.9976758 C124.487701,20.9302498 123.757371,19.1549866 122.296689,17.6718331 C120.813536,16.2111517 119.038273,15.4808219 116.970846,15.4808219 C114.903421,15.4808219 113.139394,16.2111517 111.678711,17.6718331 C110.21803,19.1549866 109.487701,20.9302498 109.487701,22.9976758 C109.487701,25.0651019 110.21803,26.8291292 111.678711,28.2898107 C113.139394,29.7504921 114.903421,30.4808219 116.970846,30.4808219 Z M129,23.0169252 L129,34.9661495 L124.531735,34.9661495 L124.531735,32.25811 C122.297591,34.0860458 119.781396,35 116.983075,35 C113.688277,35 110.867431,33.8265279 108.520451,31.4795487 C106.173472,29.1325694 105,26.3117231 105,23.0169252 C105,19.6995603 106.173472,16.8674306 108.520451,14.5204513 C110.867431,12.1734721 113.688277,11 116.983075,11 C120.30044,11 123.132569,12.1734721 125.479549,14.5204513 C127.826528,16.8674306 129,19.6995603 129,23.0169252 Z" fill="#70BEF6" fill-rule="nonzero"></path>
        </g>
    </g>
</svg>