<?xml version="1.0" encoding="UTF-8"?>
<svg width="398px" height="100px" viewBox="0 0 398 100" version="1.1" xmlns="http://www.w3.org/2000/svg" xmlns:xlink="http://www.w3.org/1999/xlink">
    <!-- Generator: Sketch 54.1 (76490) - https://sketchapp.com -->
    <title>Symbol &amp; Wordmark / main / eng</title>
    <desc>Created with Sketch.</desc>
    <defs>
        <linearGradient x1="100%" y1="0%" x2="0%" y2="100%" id="linearGradient-1">
            <stop stop-color="#B0F4FE" offset="0%"></stop>
            <stop stop-color="#70C4F9" offset="41.577854%"></stop>
            <stop stop-color="#7691E0" offset="100%"></stop>
        </linearGradient>
        <linearGradient x1="14.0644994%" y1="12.586826%" x2="86.0557457%" y2="85.1689482%" id="linearGradient-2">
            <stop stop-color="#FDEA67" offset="0%"></stop>
            <stop stop-color="#F5971A" offset="100%"></stop>
        </linearGradient>
        <linearGradient x1="67.8425316%" y1="31.3704989%" x2="0%" y2="100%" id="linearGradient-3">
            <stop stop-color="#D698FF" offset="0%"></stop>
            <stop stop-color="#4A99E1" offset="100%"></stop>
        </linearGradient>
    </defs>
    <g id="Page-1" stroke="none" stroke-width="1" fill="none" fill-rule="evenodd">
        <g id="Symbol-&amp;-Wordmark-/-main-/-eng" fill-rule="nonzero">
            <g id="Group-41" transform="translate(124.000000, 18.000000)" fill="#454C53">
                <path d="M86,10.6846061 L86,45 C86,47.7614237 83.7614237,50 81,50 C78.2385763,50 76,47.7614237 76,45 L76,10.6846061 C74.9640119,10.9884175 73.9939518,11.3898341 73.0968949,11.8817808 C70.8746727,13.1004489 69.1004489,14.8746727 67.8817808,17.0968949 C66.6631126,19.3191171 66,21.9893378 66,25 L66,45 C66,47.7614237 63.7614237,50 61,50 C58.2385763,50 56,47.7614237 56,45 L56,24.5092038 C56,19.1347377 57.0210817,14.8398824 58.9384597,11.2546973 C60.8558378,7.66951208 63.6695121,4.85583776 67.2546973,2.93845974 C70.8398824,1.02108172 75.1347377,0 80.5092038,0 L81.4907962,0 C86.8652623,0 91.1601176,1.02108172 94.7453027,2.93845974 C98.3304879,4.85583776 101.144162,7.66951208 103.06154,11.2546973 C104.978918,14.8398824 106,19.1347377 106,24.5092038 L106,45 C106,47.7614237 103.761424,50 101,50 C98.2385763,50 96,47.7614237 96,45 L96,25 C96,21.9893378 95.3368874,19.3191171 94.1182192,17.0968949 C92.8995511,14.8746727 91.1253273,13.1004489 88.9031051,11.8817808 C88.0060482,11.3898341 87.0359881,10.9884175 86,10.6846061 Z" id="Combined-Shape"></path>
                <path d="M168,45 L168,24.5092038 C168,19.1347377 169.021082,14.8398824 170.93846,11.2546973 C172.855838,7.66951208 175.669512,4.85583776 179.254697,2.93845974 C182.839882,1.02108172 187.134738,0 192.509204,0 L193.490796,0 C198.865262,0 203.160118,1.02108172 206.745303,2.93845974 C210.330488,4.85583776 213.144162,7.66951208 215.06154,11.2546973 C216.978918,14.8398824 218,19.1347377 218,24.5092038 L218,45 C218,47.7614237 215.761424,50 213,50 C210.238576,50 208,47.7614237 208,45 L208,25 C208,21.9893378 207.336887,19.3191171 206.118219,17.0968949 C204.899551,14.8746727 203.125327,13.1004489 200.903105,11.8817808 C198.680883,10.6631126 196.010662,10 193,10 C189.989338,10 187.319117,10.6631126 185.096895,11.8817808 C182.874673,13.1004489 181.100449,14.8746727 179.881781,17.0968949 C178.663113,19.3191171 178,21.9893378 178,25 L178,45 C178,47.7614237 175.761424,50 173,50 C170.238576,50 168,47.7614237 168,45 Z" id="Combined-Shape-Copy-10"></path>
                <path d="M50,24.5092038 L50,45 C50,47.7614237 47.7614237,50 45,50 C42.6654287,50 40.7045576,48.3999998 40.1541289,46.2367417 C39.6987712,46.5277888 39.2290603,46.8028239 38.7453027,47.0615403 C35.1601176,48.9789183 30.8652623,50 25.4907962,50 L24.5092038,50 C19.1347377,50 14.8398824,48.9789183 11.2546973,47.0615403 C7.66951208,45.1441622 4.85583776,42.3304879 2.93845974,38.7453027 C1.02108172,35.1601176 0,30.8652623 0,25.4907962 L0,24.5092038 C0,19.1347377 1.02108172,14.8398824 2.93845974,11.2546973 C4.85583776,7.66951208 7.66951208,4.85583776 11.2546973,2.93845974 C14.8398824,1.02108172 19.1347377,0 24.5092038,0 L25.4907962,0 C30.8652623,0 35.1601176,1.02108172 38.7453027,2.93845974 C42.3304879,4.85583776 45.1441622,7.66951208 47.0615403,11.2546973 C48.9789183,14.8398824 50,19.1347377 50,24.5092038 Z M25,10 C21.9893378,10 19.3191171,10.6631126 17.0968949,11.8817808 C14.8746727,13.1004489 13.1004489,14.8746727 11.8817808,17.0968949 C10.6631126,19.3191171 10,21.9893378 10,25 C10,28.0106622 10.6631126,30.6808829 11.8817808,32.9031051 C13.1004489,35.1253273 14.8746727,36.8995511 17.0968949,38.1182192 C19.3191171,39.3368874 21.9893378,40 25,40 C28.0106622,40 30.6808829,39.3368874 32.9031051,38.1182192 C35.1253273,36.8995511 36.8995511,35.1253273 38.1182192,32.9031051 C39.3368874,30.6808829 40,28.0106622 40,25 C40,21.9893378 39.3368874,19.3191171 38.1182192,17.0968949 C36.8995511,14.8746727 35.1253273,13.1004489 32.9031051,11.8817808 C30.6808829,10.6631126 28.0106622,10 25,10 Z" id="Combined-Shape"></path>
                <path d="M136.509204,0 L137.490796,0 C142.865262,0 147.160118,1.02108172 150.745303,2.93845974 C154.330488,4.85583776 157.144162,7.66951208 159.06154,11.2546973 C160.978918,14.8398824 162,19.1347377 162,24.5092038 L162,25.4907962 C162,30.8652623 160.978918,35.1601176 159.06154,38.7453027 C157.144162,42.3304879 154.330488,45.1441622 150.745303,47.0615403 C147.160118,48.9789183 142.865262,50 137.490796,50 L136.509204,50 C131.134738,50 126.839882,48.9789183 123.254697,47.0615403 C119.669512,45.1441622 116.855838,42.3304879 114.93846,38.7453027 C113.021082,35.1601176 112,30.8652623 112,25.4907962 L112,24.5092038 C112,19.1347377 113.021082,14.8398824 114.93846,11.2546973 C116.855838,7.66951208 119.669512,4.85583776 123.254697,2.93845974 C126.839882,1.02108172 131.134738,0 136.509204,0 Z M137,10 C133.989338,10 131.319117,10.6631126 129.096895,11.8817808 C126.874673,13.1004489 125.100449,14.8746727 123.881781,17.0968949 C122.663113,19.3191171 122,21.9893378 122,25 C122,28.0106622 122.663113,30.6808829 123.881781,32.9031051 C125.100449,35.1253273 126.874673,36.8995511 129.096895,38.1182192 C131.319117,39.3368874 133.989338,40 137,40 C140.010662,40 142.680883,39.3368874 144.903105,38.1182192 C147.125327,36.8995511 148.899551,35.1253273 150.118219,32.9031051 C151.336887,30.6808829 152,28.0106622 152,25 C152,21.9893378 151.336887,19.3191171 150.118219,17.0968949 C148.899551,14.8746727 147.125327,13.1004489 144.903105,11.8817808 C142.680883,10.6631126 140.010662,10 137,10 Z" id="Combined-Shape-Copy-11"></path>
                <path d="M248.509204,0 L249.490796,0 C254.865262,0 259.160118,1.02108172 262.745303,2.93845974 C266.330488,4.85583776 269.144162,7.66951208 271.06154,11.2546973 C272.978918,14.8398824 274,19.1347377 274,24.5092038 L274,25.4907962 C274,30.8652623 272.978918,35.1601176 271.06154,38.7453027 C269.144162,42.3304879 266.330488,45.1441622 262.745303,47.0615403 C259.160118,48.9789183 254.865262,50 249.490796,50 L248.509204,50 C243.134738,50 238.839882,48.9789183 235.254697,47.0615403 C231.669512,45.1441622 228.855838,42.3304879 226.93846,38.7453027 C225.021082,35.1601176 224,30.8652623 224,25.4907962 L224,24.5092038 C224,19.1347377 225.021082,14.8398824 226.93846,11.2546973 C228.855838,7.66951208 231.669512,4.85583776 235.254697,2.93845974 C238.839882,1.02108172 243.134738,0 248.509204,0 Z M249,10 C245.989338,10 243.319117,10.6631126 241.096895,11.8817808 C238.874673,13.1004489 237.100449,14.8746727 235.881781,17.0968949 C234.663113,19.3191171 234,21.9893378 234,25 C234,28.0106622 234.663113,30.6808829 235.881781,32.9031051 C237.100449,35.1253273 238.874673,36.8995511 241.096895,38.1182192 C243.319117,39.3368874 245.989338,40 249,40 C252.010662,40 254.680883,39.3368874 256.903105,38.1182192 C259.125327,36.8995511 260.899551,35.1253273 262.118219,32.9031051 C263.336887,30.6808829 264,28.0106622 264,25 C264,21.9893378 263.336887,19.3191171 262.118219,17.0968949 C260.899551,14.8746727 259.125327,13.1004489 256.903105,11.8817808 C254.680883,10.6631126 252.010662,10 249,10 Z" id="Combined-Shape-Copy-12"></path>
                <g id="Group-40" transform="translate(229.000000, 52.000000)">
                    <circle id="Oval-16" cx="34" cy="6" r="6"></circle>
                    <circle id="Oval-16-Copy" cx="12.5" cy="15.5" r="12.5"></circle>
                </g>
            </g>
            <g id="Group-39">
                <path d="M58.1538462,0 L93.8461538,0 C97.2448292,-6.23432929e-16 100,2.75517077 100,6.15384615 L100,41.8461538 C100,45.2448292 97.2448292,48 93.8461538,48 L58.1538462,48 C54.7551708,48 52,45.2448292 52,41.8461538 L52,6.15384615 C52,2.75517077 54.7551708,6.31973106e-16 58.1538462,0 Z" id="Rectangle-21-Copy-2" fill="url(#linearGradient-1)"></path>
                <path d="M42.5,100 C19.0278981,100 0,80.9721019 0,57.5 C0,34.0278981 19.0278981,15 42.5,15 C65.9721019,15 85,34.0278981 85,57.5 C85,80.9721019 65.9721019,100 42.5,100 Z M31.5,82 C38.9558441,82 45,75.9558441 45,68.5 C45,61.0441559 38.9558441,55 31.5,55 C24.0441559,55 18,61.0441559 18,68.5 C18,75.9558441 24.0441559,82 31.5,82 Z" id="Combined-Shape" fill="url(#linearGradient-2)"></path>
                <path d="M83.9342212,48 L58.1538462,48 C54.7551708,48 52,45.2448292 52,41.8461538 L52,16.0657788 C67.8442003,19.6835056 80.3164944,32.1557997 83.9342212,48 Z" id="Combined-Shape" fill="url(#linearGradient-3)"></path>
            </g>
        </g>
    </g>
</svg>