<svg xmlns="http://www.w3.org/2000/svg" width="36" height="36" viewBox="0 0 36 36">
    <path fill="#72787F" fill-rule="evenodd" d="M18 36C8.059 36 0 27.941 0 18S8.059 0 18 0s18 8.059 18 18-8.059 18-18 18zm7.255-26.924H10.742a3.356 3.356 0 0 0-3.35 3.364v7.977a3.354 3.354 0 0 0 3.35 3.362h5l1.706 2.777s.017.035.055.08a.573.573 0 0 0 .99.004.39.39 0 0 0 .059-.084l1.704-2.777h5a3.358 3.358 0 0 0 3.352-3.362V12.44a3.36 3.36 0 0 0-3.353-3.364zM11.816 17.9a.834.834 0 1 0 0-1.668.834.834 0 0 0 0 1.668zm.287-2.855c1.762 0 1.83 1.977 1.83 1.977 0 1.954-1.83 2.024-1.83 2.024-.782 0-1.091-.56-1.091-.56v.423H9.7V13.5h1.297v2.06c.526-.514 1.106-.514 1.106-.514zm2.248-1.546c1.898 0 1.844 2.036 1.844 2.036v3.499h-1.253v-3.202c0-1.105-.591-1.079-.591-1.079V13.5zm4.905 3.836a.834.834 0 1 0 0-1.668.834.834 0 0 0 0 1.668zm0-2.836c2.268 0 2.195 2.003 2.195 2.003 0 1.975-2.195 1.979-2.195 1.979-2.216 0-2.148-1.979-2.148-1.979 0-2.003 2.148-2.003 2.148-2.003zm5.002 2.836a.834.834 0 1 0 0-1.668.834.834 0 0 0 0 1.668zm.776-2.709h1.263v3.669c0 2.048-1.898 2.028-1.898 2.028h-.506v-1.15h.314c.92 0 .827-.95.827-.95v-.302c-.405.524-1.141.494-1.141.494-1.806 0-1.787-1.927-1.787-1.927 0-2.068 1.838-1.989 1.838-1.989.716 0 1.09.496 1.09.496v-.369z"/>
</svg>
