<svg xmlns="http://www.w3.org/2000/svg" width="36" height="36" viewBox="0 0 36 36">
    <path fill="#72787F" fill-rule="evenodd" d="M18 36C8.059 36 0 27.941 0 18S8.059 0 18 0s18 8.059 18 18-8.059 18-18 18zm7.892-13.564a3.758 3.758 0 0 1-3.757 3.756h-8.481a3.76 3.76 0 0 1-3.757-3.756v-8.48a3.758 3.758 0 0 1 3.757-3.757h8.481a3.756 3.756 0 0 1 3.757 3.757v8.48zM22.04 8.346h-8.288a5.658 5.658 0 0 0-5.658 5.658v8.286a5.656 5.656 0 0 0 5.658 5.656h8.288a5.655 5.655 0 0 0 5.657-5.656v-8.286a5.657 5.657 0 0 0-5.657-5.658zm-4.145 13.146a3.298 3.298 0 1 1 .003-6.595 3.298 3.298 0 0 1-.003 6.595zm0-8.383a5.085 5.085 0 0 0-5.085 5.087 5.085 5.085 0 0 0 5.085 5.085 5.088 5.088 0 0 0 5.088-5.085 5.088 5.088 0 0 0-5.088-5.087zm5.257-1.379a1.185 1.185 0 1 0-.001 2.37 1.185 1.185 0 0 0 0-2.37z"/>
</svg>
